<svg width="20" height="20" viewBox="0 0 20 20" fill="none" xmlns="http://www.w3.org/2000/svg">
<g clip-path="url(#clip0_29_85)">
<path d="M20 10.0608C20 15.0516 16.3383 19.1891 11.5583 19.94V12.9708H13.8825L14.325 10.0875H11.5583V8.21663C11.5583 7.42746 11.945 6.65913 13.1833 6.65913H14.4408V4.20413C14.4408 4.20413 13.2992 4.00913 12.2083 4.00913C9.93 4.00913 8.44167 5.38996 8.44167 7.88913V10.0866H5.90917V12.97H8.44167V19.9391C3.6625 19.1875 0 15.0508 0 10.0608C0 4.53829 4.4775 0.060791 10 0.060791C15.5225 0.060791 20 4.53746 20 10.0608Z" fill="#E8AA42"/>
</g>
<defs>
<clipPath id="clip0_29_85">
<rect width="20" height="20" fill="white"/>
</clipPath>
</defs>
</svg>
