<svg width="20" height="21" viewBox="0 0 20 21" fill="none" xmlns="http://www.w3.org/2000/svg">
<path d="M17.042 17.527H14.0783V12.8858C14.0783 11.779 14.0586 10.3548 12.5368 10.3548C10.9934 10.3548 10.7568 11.5602 10.7568 12.806V17.527H7.79411V7.98244H10.6395V9.28639H10.679C11.2595 8.29488 12.3377 7.70253 13.4859 7.74491C16.49 7.74491 17.043 9.72104 17.043 12.2905L17.042 17.527ZM4.44997 6.67751C3.49986 6.67751 2.73011 5.90776 2.73011 4.95764C2.73011 4.00753 3.49986 3.23777 4.44997 3.23777C5.40009 3.23777 6.16984 4.00753 6.16984 4.95764C6.16984 5.90776 5.40009 6.67751 4.44997 6.67751ZM5.93133 17.527H2.96468V7.98244H5.93133V17.527ZM18.5194 0.485984H1.47544C0.670207 0.477113 0.00985598 1.12268 0 1.92791V19.0418C0.00985598 19.8481 0.670207 20.4936 1.47544 20.4848H18.5194C19.3266 20.4946 19.9899 19.849 20.0007 19.0418V1.92693C19.9889 1.11972 19.3256 0.474156 18.5194 0.484998" fill="#E8AA42"/>
</svg>
