<svg width="39" height="30" viewBox="0 0 39 30" fill="none" xmlns="http://www.w3.org/2000/svg">
<path d="M36.5625 12.5H2.4375C1.09131 12.5 0 13.6193 0 15C0 16.3807 1.09131 17.5 2.4375 17.5H36.5625C37.9087 17.5 39 16.3807 39 15C39 13.6193 37.9087 12.5 36.5625 12.5Z" fill="#E8AA42"/>
<path d="M2.4375 5.83337H36.5625C37.9087 5.83337 39 4.71408 39 3.33337C39 1.95267 37.9087 0.833374 36.5625 0.833374H2.4375C1.09131 0.833374 0 1.95267 0 3.33337C0 4.71408 1.09131 5.83337 2.4375 5.83337Z" fill="#E8AA42"/>
<path d="M36.5625 24.1666H2.4375C1.09131 24.1666 0 25.2859 0 26.6666C0 28.0473 1.09131 29.1666 2.4375 29.1666H36.5625C37.9087 29.1666 39 28.0473 39 26.6666C39 25.2859 37.9087 24.1666 36.5625 24.1666Z" fill="#E8AA42"/>
</svg>
